Coordinates
version=1
nRows=13
nColumns=40
inDegrees=yes

Units are S.I. units (second, meters, Newtons, ...)
Angles are in degrees.

endheader
time	pelvis_tilt	pelvis_list	pelvis_rotation	pelvis_tx	pelvis_ty	pelvis_tz	hip_flexion_r	hip_adduction_r	hip_rotation_r	knee_angle_r	knee_angle_r_beta	ankle_angle_r	subtalar_angle_r	mtp_angle_r	hip_flexion_l	hip_adduction_l	hip_rotation_l	knee_angle_l	knee_angle_l_beta	ankle_angle_l	subtalar_angle_l	mtp_angle_l	lumbar_extension	lumbar_bending	lumbar_rotation	arm_flex_r	arm_add_r	arm_rot_r	elbow_flex_r	pro_sup_r	wrist_flex_r	wrist_dev_r	arm_flex_l	arm_add_l	arm_rot_l	elbow_flex_l	pro_sup_l	wrist_flex_l	wrist_dev_l
     26.78000000	     -0.70127730	     -6.02252586	      1.95483238	      1.10303297	      0.93306667	      0.52459354	      9.47934252	      4.83301990	    -15.10415648	     16.34570408	     16.34570408	     10.36123360	      3.23281582	     -5.36215275	     27.67716934	    -15.26216626	      0.03326400	     52.04302723	     52.04302723	     12.45438958	    -18.54957861	     14.12427773	    -10.78482626	      6.98955868	      3.14941702	     18.43532465	    -18.06368888	     -2.43887938	     44.27960458	     45.94126445	      0.00000000	      0.00000000	      7.33593091	     -8.39145769	    -10.29101623	     30.11198297	     45.73493430	      0.00000000	      0.00000000
     26.79400000	     -0.82253326	     -5.91351687	      2.19747714	      1.10198901	      0.93340273	      0.52468648	      9.01290679	      4.77269569	    -15.32554221	     15.88328104	     15.88328104	     10.49974951	      3.48695992	     -5.38271525	     28.52831237	    -15.31779627	     -0.45112753	     49.21285242	     49.21285242	     12.50090345	    -18.60333811	     14.32563943	    -10.69532700	      6.91094838	      3.16842817	     20.23310591	    -18.16589935	     -2.55782869	     45.64671500	     45.90351917	      0.00000000	      0.00000000	      5.97978949	     -8.25181834	    -10.19770031	     29.24676117	     45.70661716	      0.00000000	      0.00000000
     26.80800000	     -0.87539047	     -5.86634691	      2.47090535	      1.10100520	      0.93377505	      0.52470995	      8.43012901	      4.77200093	    -15.68703406	     15.34353159	     15.34353159	     10.60368975	      3.96241702	     -5.43387080	     29.09355617	    -15.34015628	     -0.88809190	     46.01743995	     46.01743995	     12.35227442	    -18.55218632	     14.37048073	    -10.70351246	      6.92129699	      2.97056505	     22.05645797	    -18.16647029	     -2.58933997	     47.48395034	     45.84390171	      0.00000000	      0.00000000	      4.56666694	     -8.17734221	    -10.03413719	     28.25865699	     45.66842590	      0.00000000	      0.00000000
     26.82200000	     -0.92275968	     -5.87399418	      2.72744718	      1.10008123	      0.93390800	      0.52460473	      7.86651892	      4.77646347	    -16.31635132	     14.86443703	     14.86443703	     10.68747890	      4.85676294	     -5.83237319	     29.42733214	    -15.37320785	     -1.37757669	     42.49242951	     42.49242951	     11.34756829	    -18.42917284	     12.28514630	    -10.75609518	      7.04260833	      3.33711174	     22.79423666	    -19.04711672	     -1.79464160	     51.63101560	     45.64584050	      0.00000000	      0.00000000	      3.55278590	     -8.00868303	     -9.05774065	     26.96554291	     45.55538363	      0.00000000	      0.00000000
     26.83600000	     -1.15821213	     -6.09651343	      2.96361712	      1.09899240	      0.93345534	      0.52452711	      7.75482074	      5.02764953	    -16.51995772	     14.78058530	     14.78058530	     10.90135648	      4.83758325	     -5.94365747	     30.10431517	    -15.48074145	     -1.46472127	     39.29121311	     39.29121311	     11.30150827	    -17.83478307	     12.74561088	    -10.45866051	      7.37626444	      3.93843449	     24.38519083	    -19.58082029	     -2.01643321	     52.37025674	     45.63777663	      0.00000000	      0.00000000	      2.46994499	     -7.78248357	     -9.02034718	     26.50264496	     45.53278275	      0.00000000	      0.00000000
     26.85000000	     -1.07818597	     -5.81551704	      3.15322607	      1.09823925	      0.93393917	      0.52410789	      6.88489175	      4.79298578	    -16.88760968	     13.99050123	     13.99050123	     10.91469580	      5.60925324	     -6.27211469	     29.78591819	    -15.00795820	     -1.88847917	     35.31204528	     35.31204528	      9.96693548	    -17.53705870	     10.90234086	    -10.74529565	      7.13331648	      3.52980439	     25.54305860	    -19.51782992	     -1.81561643	     56.51303454	     45.48250325	      0.00000000	      0.00000000	      1.00522437	     -7.80619188	     -7.78777334	     25.62659985	     45.35750732	      0.00000000	      0.00000000
     26.86400000	     -1.17503804	     -5.82786196	      3.34502878	      1.09726480	      0.93376208	      0.52368970	      6.45693725	      4.86029565	    -16.97509230	     13.59460628	     13.59460628	     11.03155396	      5.69093763	     -6.35870904	     29.94711038	    -14.78324342	     -1.93061336	     31.94579977	     31.94579977	      9.60720561	    -16.46950386	     11.04200847	    -10.73156158	      7.20460561	      3.39117483	     27.22528393	    -19.35706081	     -2.00672429	     58.29364853	     45.43607592	      0.00000000	      0.00000000	     -0.30495045	     -7.68413133	     -7.43580588	     25.01589371	     45.29222934	      0.00000000	      0.00000000
     26.87800000	     -1.42479873	     -5.96291317	      3.52777577	      1.09623021	      0.93311932	      0.52313103	      6.35022556	      5.00465962	    -17.10189767	     13.47440515	     13.47440515	     11.25604907	      5.65382897	     -6.48959868	     30.39343363	    -14.65625443	     -1.83249305	     28.97012912	     28.97012912	      9.41754640	    -15.02210579	     11.40111140	    -10.44806460	      7.42708569	      3.72964519	     28.73093228	    -19.69408319	     -2.21364707	     59.27973071	     45.41773208	      0.00000000	      0.00000000	     -1.34687784	     -7.46391750	     -7.36905904	     24.62799827	     45.26518153	      0.00000000	      0.00000000
     26.89200000	     -1.37221760	     -5.80264782	      3.69920620	      1.09547722	      0.93315297	      0.52241140	      5.68887403	      4.90939492	    -17.08192572	     12.98737475	     12.98737475	     11.42219166	      5.68253767	     -6.65829906	     30.20416258	    -14.33919767	     -2.25035692	     25.89988105	     25.89988105	      9.20305721	    -12.80001700	     11.23798766	    -10.63412513	      7.27383094	      3.19802372	     30.09118394	    -19.01951669	     -2.20082839	     62.17185183	     45.32403464	      0.00000000	      0.00000000	     -2.77699075	     -7.42304024	     -7.12408624	     24.25173090	     45.20805471	      0.00000000	      0.00000000
     26.90600000	     -1.48997473	     -5.77774089	      3.86708492	      1.09463093	      0.93275523	      0.52152153	      5.34263757	      4.91057843	    -17.03815262	     12.70814892	     12.70814892	     11.57145951	      5.53842078	     -6.84291868	     30.35864809	    -14.09827134	     -2.43493752	     23.34786088	     23.34786088	      9.05057912	    -10.65497924	     11.15361455	    -10.58651428	      7.27132341	      3.10398555	     31.23154864	    -18.86838644	     -2.26497694	     64.48348664	     45.25379418	      0.00000000	      0.00000000	     -4.01023095	     -7.34476646	     -6.97824168	     24.06043251	     45.16791256	      0.00000000	      0.00000000
     26.92000000	     -1.54991515	     -5.88929625	      4.06864314	      1.09385628	      0.93225544	      0.52054412	      4.88339664	      5.11176739	    -16.81413295	     12.28132997	     12.28132997	     11.47444707	      5.00822828	     -7.54454701	     30.62175033	    -14.04376381	     -2.72929935	     21.37241930	     21.37241930	      8.71933922	     -8.31677442	     10.13427092	    -10.68487601	      7.42208501	      3.64872425	     31.17985742	    -19.48899649	     -2.53469792	     69.52949754	     45.10632818	      0.00000000	      0.00000000	     -5.12044907	     -7.28201132	     -6.25098780	     24.90479452	     45.06577152	      0.00000000	      0.00000000
     26.93400000	     -1.66119059	     -5.84373309	      4.28375524	      1.09304311	      0.93183496	      0.51926479	      4.55066209	      5.06565680	    -16.75521752	     12.06413831	     12.06413831	     11.67749696	      4.76634995	     -7.66092672	     30.83195890	    -13.70856087	     -2.81008335	     19.64621373	     19.64621373	      8.59511153	     -6.64374891	     10.23825900	    -10.60457942	      7.38099189	      3.33811128	     32.40723419	    -18.98088194	     -2.67772476	     71.47499304	     45.05538190	      0.00000000	      0.00000000	     -6.12598380	     -7.19536851	     -6.06366393	     24.48742840	     45.03034045	      0.00000000	      0.00000000
     26.94800000	     -1.73888004	     -5.83806860	      4.52116109	      1.09235176	      0.93141215	      0.51784143	      4.15350115	      5.07686029	    -16.64704369	     11.79360068	     11.79360068	     11.84971745	      4.39832008	     -7.76979199	     31.07858646	    -13.43008676	     -2.97302726	     18.46997018	     18.46997018	      8.50648863	     -5.16251402	     10.19864179	    -10.55655347	      7.38248729	      3.05410613	     33.37965015	    -18.57288066	     -2.76544153	     74.05383611	     44.98182158	      0.00000000	      0.00000000	     -7.09888246	     -7.10710823	     -5.94821771	     24.32555567	     45.00866483	      0.00000000	      0.00000000
